<svg xmlns="http://www.w3.org/2000/svg" viewBox="0 0 400 300" width="406" height="306" class="illustration styles_illustrationTablet__1DWOa"><g id="_162_career_outline" data-name="#162_career_outline"><path d="M218.73,216.39H199.78a1,1,0,0,1-.68-.26c-28.4-26.19-51.34-58.93-60.38-72.58l-11.9,6.27a1,1,0,0,1-1.44-1.13l9.86-38.79a1,1,0,0,1,.5-.64,1,1,0,0,1,.81-.06L174.12,123a1,1,0,0,1,.12,1.83l-12.32,6.49c18.82,35.12,38.17,63.16,57.53,83.36a1,1,0,0,1-.72,1.69Zm-18.56-2h16.24c-19.12-20.36-38.19-48.27-56.73-83a1,1,0,0,1-.07-.76,1,1,0,0,1,.49-.59l11.22-5.91-34.41-12.67-9,35.55,10.72-5.65a1,1,0,0,1,1.3.34C148.49,154.75,171.53,187.9,200.17,214.39Z" fill="#dfeaef"></path><path d="M183.28,157.36c1.2,2.68,3.79,3.57,8.29,3.36,9.68-.44,19.47,0,29.15,0h53.44c3.18,0,4.81-1.55,5-4.77.79-13.85-.05-27.51-.91-41.31-.77-12.43-2.45-25.19-8.72-36.19-12.08-21.24-44.45-31-58.45-12.78,0,0-10-3.34-19.5,8.35-7.77,9.58-8.51,22.3-8.65,34.07l-.49,43.76A13.3,13.3,0,0,0,183.28,157.36Z" fill="#725858"></path><path d="M190.29,161.75c-3.22,0-6.43-.66-7.92-4h0a14,14,0,0,1-.93-6l.49-43.76c.14-12.2.94-24.92,8.87-34.69,8.48-10.45,17.37-9.42,19.9-8.86,5.44-6.7,13.82-10,23.65-9.33,14.38,1,28.87,10.14,36,22.76,6.51,11.43,8.13,24.92,8.85,36.62.84,13.55,1.7,27.53.91,41.43-.22,3.73-2.29,5.7-6,5.71H220.72c-3.14,0-6.29-.05-9.44-.09-6.46-.09-13.15-.18-19.66.12C191.18,161.74,190.73,161.75,190.29,161.75Zm-6.1-4.8c1,2.16,3.1,3,7.33,2.77,6.58-.3,13.29-.21,19.79-.12,3.14,0,6.28.09,9.41.09h53.45c2.64,0,3.83-1.15,4-3.83.79-13.78,0-27.08-.9-41.16-.75-12.07-2.31-24.73-8.6-35.79-6.86-12-20.71-20.8-34.45-21.75-9.4-.66-17.33,2.58-22.34,9.09a1,1,0,0,1-1.11.34c-.38-.13-9.51-2.94-18.4,8-7.53,9.27-8.29,21.61-8.43,33.45l-.49,43.76a12.44,12.44,0,0,0,.75,5.12Z" fill="#093f68"></path><path d="M245.46,171.49h-23c-3.42,0-18-.67-24,8.16-6.57,9.7-13.1,25.26-13.1,25.26h10.7v33.41h73.41V197.67C269.49,183.21,258.73,171.49,245.46,171.49Z" fill="#0000ff"></path><path d="M269.48,239.32h-73.4a1,1,0,0,1-1-1V205.91h-9.7a1,1,0,0,1-.83-.45,1,1,0,0,1-.09-.94c.07-.16,6.65-15.76,13.19-25.43,5.95-8.78,19.67-8.65,24.18-8.6h23.63c13.8,0,25,12.19,25,27.18v40.65A1,1,0,0,1,269.48,239.32Zm-72.4-2h71.4V197.67c0-13.88-10.32-25.18-23-25.18H221.81c-4.24,0-17.16-.16-22.5,7.73s-10.65,19.68-12.41,23.7h9.18a1,1,0,0,1,1,1Z" fill="#093f68"></path><polygon points="235.93 174.06 229.52 222.34 222.77 174.06 235.93 174.06" fill="#fff"></polygon><path d="M229.52,223.34a1,1,0,0,1-1-.86l-6.75-48.28a1,1,0,0,1,1-1.14h13.16a1,1,0,0,1,1,1.13l-6.41,48.28a1,1,0,0,1-1,.87Zm-5.6-48.28,5.57,39.88,5.3-39.88Z" fill="#093f68"></path><path d="M229.52,239.32a1,1,0,0,1-1-1V222.84l-18-13.35a1,1,0,0,1-.4-.7,1,1,0,0,1,.25-.77l7.86-8.69-8.68-8.23a1,1,0,0,1-.1-1.34L222,173.45a1,1,0,0,1,1.58,1.22l-12,15.6,8.73,8.28a1,1,0,0,1,.05,1.4l-7.77,8.59,17.55,13a1,1,0,0,1,.41.8v16A1,1,0,0,1,229.52,239.32Z" fill="#093f68"></path><path d="M230.29,223.34a1,1,0,0,1-.8-.4,1,1,0,0,1,.21-1.4l17.55-13L239.48,200a1,1,0,0,1,.05-1.4l8.74-8.28-12-15.6a1,1,0,1,1,1.58-1.22l12.57,16.31a1,1,0,0,1-.1,1.34l-8.68,8.23,7.86,8.69a1,1,0,0,1,.25.77,1,1,0,0,1-.4.7l-18.44,13.65A1,1,0,0,1,230.29,223.34Z" fill="#093f68"></path><path d="M223.57,166.49h13.16a0,0,0,0,1,0,0v7.57a5.59,5.59,0,0,1-5.59,5.59h-2a5.59,5.59,0,0,1-5.59-5.59v-7.57A0,0,0,0,1,223.57,166.49Z" fill="#ffc9b0"></path><path d="M231.14,180.65h-2a6.59,6.59,0,0,1-6.59-6.59v-7.57a1,1,0,0,1,1-1h13.16a1,1,0,0,1,1,1v7.57A6.59,6.59,0,0,1,231.14,180.65Zm-6.57-13.16v6.57a4.6,4.6,0,0,0,4.59,4.59h2a4.6,4.6,0,0,0,4.59-4.59v-6.57Z" fill="#093f68"></path><ellipse cx="192.53" cy="132.3" rx="12.79" ry="11.02" fill="#ffc9b0"></ellipse><path d="M192.53,144.32c-7.6,0-13.79-5.39-13.79-12s6.19-12,13.79-12,13.79,5.39,13.79,12S200.14,144.32,192.53,144.32Zm0-22c-6.5,0-11.79,4.49-11.79,10s5.29,10,11.79,10,11.79-4.5,11.79-10S199,122.28,192.53,122.28Z" fill="#093f68"></path><ellipse cx="267.09" cy="132.3" rx="12.79" ry="11.02" fill="#ffc9b0"></ellipse><path d="M267.09,144.32c-7.61,0-13.79-5.39-13.79-12s6.18-12,13.79-12,13.79,5.39,13.79,12S274.69,144.32,267.09,144.32Zm0-22c-6.5,0-11.79,4.49-11.79,10s5.29,10,11.79,10,11.79-4.5,11.79-10S273.59,122.28,267.09,122.28Z" fill="#093f68"></path><path d="M253.61,99.61l-12.48-16s-2.81,9.87-4.53,16l-19.67-.06-4.64-14.32-5.45,14.29-15.26,0v30.21a38.57,38.57,0,0,0,38.57,38.57h0a38.57,38.57,0,0,0,38.57-38.57v-30Z" fill="#ffc9b0"></path><path d="M230.15,169.21a39.61,39.61,0,0,1-39.57-39.57V99.43a1,1,0,0,1,.29-.71,1,1,0,0,1,.71-.29l14.57,0,5.21-13.65a1,1,0,0,1,1-.64,1,1,0,0,1,.92.69l4.41,13.64,18.19,0c1.73-6.14,4.33-15.27,4.33-15.27a1,1,0,0,1,1.75-.34L254.1,98.61l14.62,0a1,1,0,0,1,1,1v30A39.61,39.61,0,0,1,230.15,169.21Zm-37.57-68.78v29.21a37.57,37.57,0,0,0,75.14,0v-29l-14.12,0a1,1,0,0,1-.78-.39L241.55,85.74c-.9,3.17-2.73,9.63-4,14.09a1,1,0,0,1-1,.73h0l-19.67-.06a1,1,0,0,1-.95-.69l-3.76-11.62-4.44,11.64a1,1,0,0,1-.93.64h0Z" fill="#093f68"></path><path d="M212.58,140.47a13.61,13.61,0,1,1,13.61-13.61A13.62,13.62,0,0,1,212.58,140.47Zm0-25.21a11.61,11.61,0,1,0,11.61,11.6A11.61,11.61,0,0,0,212.58,115.26Z" fill="#093f68"></path><path d="M247.72,140.47a13.61,13.61,0,1,1,13.6-13.61A13.63,13.63,0,0,1,247.72,140.47Zm0-25.21a11.61,11.61,0,1,0,11.6,11.6A11.62,11.62,0,0,0,247.72,115.26Z" fill="#093f68"></path><circle cx="213.77" cy="127.6" r="3.57" fill="#093f68"></circle><circle cx="245.56" cy="126.86" r="3.57" fill="#093f68"></circle><path d="M229.5,139.69a21.54,21.54,0,0,1-3.46-.29,1,1,0,0,1,.35-2,16.66,16.66,0,0,0,5.41,0c.31-.92-1.05-4.85-3-8.59a1,1,0,1,1,1.77-.92c1,1.85,4.06,8.1,3,10.39a1.8,1.8,0,0,1-1.21,1A12.58,12.58,0,0,1,229.5,139.69Z" fill="#093f68"></path><path d="M202.62,114a2,2,0,0,1-.24-4l16.9-2.1a2,2,0,1,1,.49,4l-16.9,2.1Z" fill="#093f68"></path><path d="M255.53,114.45a1.47,1.47,0,0,1-.36,0l-16.75-3.06a2,2,0,1,1,.72-3.93l16.75,3.06a2,2,0,0,1-.36,4Z" fill="#093f68"></path><path d="M232.35,153.69a25.23,25.23,0,0,1-17.56-7.44,1,1,0,1,1,1.49-1.33c.43.48,10.64,11.62,26.47,4.36a1,1,0,1,1,.84,1.81A26.78,26.78,0,0,1,232.35,153.69Z" fill="#093f68"></path><path d="M235.11,126.17a.94.94,0,0,1-.57-.18,7.5,7.5,0,0,0-8.85,0,1,1,0,0,1-1.24-1.57,9.63,9.63,0,0,1,11.23,0,1,1,0,0,1-.57,1.82Z" fill="#093f68"></path><path d="M199.89,124.29a.78.78,0,0,1-.26,0l-7.36-2a1,1,0,0,1,.53-1.93l7.36,2a1,1,0,0,1-.27,2Z" fill="#093f68"></path><path d="M260.88,124.29a1,1,0,0,1-.27-2l7.36-2a1,1,0,1,1,.53,1.93l-7.36,2A.82.82,0,0,1,260.88,124.29Z" fill="#093f68"></path><path d="M212.58,147.71a1,1,0,0,1-.43-1.9,6.27,6.27,0,0,0,3.2-3.81,1,1,0,0,1,1.21-.74,1,1,0,0,1,.74,1.2,8.3,8.3,0,0,1-4.28,5.15A1,1,0,0,1,212.58,147.71Z" fill="#093f68"></path><path d="M255.07,238.3a1,1,0,0,1-1-1V197.47a1,1,0,1,1,2,0V237.3A1,1,0,0,1,255.07,238.3Z" fill="#093f68"></path><rect x="156.44" y="174.14" width="18.9" height="18.9" fill="#ffc9b0"></rect><path d="M175.34,194h-18.9a1,1,0,0,1-1-1v-18.9a1,1,0,0,1,1-1h18.9a1,1,0,0,1,1,1V193A1,1,0,0,1,175.34,194Zm-17.9-2h16.9v-16.9h-16.9Z" fill="#093f68"></path><path d="M192.84,211.15a1,1,0,0,1-1-1V190.32a1,1,0,0,1,2,0v19.83A1,1,0,0,1,192.84,211.15Z" fill="#093f68"></path><path d="M181.5,186.12a2,2,0,0,1-2-2v-6c0-1.67-1.83-3.08-4-3.08h-20c-2.17,0-4,1.41-4,3.08v6a2,2,0,0,1-4,0v-6c0-3.9,3.59-7.08,8-7.08h20c4.42,0,8,3.18,8,7.08v6A2,2,0,0,1,181.5,186.12Z" fill="#093f68"></path><rect x="124.31" y="184.12" width="82.36" height="54.87" rx="4.08" fill="#f56132"></rect><path d="M202.59,240h-74.2a5.09,5.09,0,0,1-5.08-5.08V188.2a5.09,5.09,0,0,1,5.08-5.08h74.2a5.09,5.09,0,0,1,5.08,5.08v46.72A5.09,5.09,0,0,1,202.59,240Zm-74.2-54.88a3.08,3.08,0,0,0-3.08,3.08v46.72a3.08,3.08,0,0,0,3.08,3.08h74.2a3.08,3.08,0,0,0,3.08-3.08V188.2a3.08,3.08,0,0,0-3.08-3.08Z" fill="#093f68"></path><path d="M195.08,203.62H135.91a8.06,8.06,0,0,1-7.78-5.9l-2.92-10.38a2.54,2.54,0,0,1,2.44-3.22h75.68a2.53,2.53,0,0,1,2.44,3.22l-2.91,10.38A8.08,8.08,0,0,1,195.08,203.62Z" fill="#f56132"></path><path d="M195.08,204.62H135.91a9.11,9.11,0,0,1-8.75-6.62l-2.91-10.39a3.54,3.54,0,0,1,3.4-4.49h75.68a3.53,3.53,0,0,1,3.4,4.49L203.82,198A9.1,9.1,0,0,1,195.08,204.62Zm-67.43-19.5a1.53,1.53,0,0,0-1.47,1.95l2.91,10.39a7.1,7.1,0,0,0,6.82,5.16h59.17a7.09,7.09,0,0,0,6.81-5.16l2.92-10.39a1.53,1.53,0,0,0-.26-1.34,1.51,1.51,0,0,0-1.22-.61Z" fill="#093f68"></path><rect x="163.2" y="198.18" width="4.58" height="11.79" rx="1.23" fill="#ffbc0e"></rect><path d="M166.55,211h-2.12a2.23,2.23,0,0,1-2.23-2.23v-9.33a2.23,2.23,0,0,1,2.23-2.23h2.12a2.23,2.23,0,0,1,2.23,2.23v9.33A2.23,2.23,0,0,1,166.55,211Zm-2.12-11.79a.23.23,0,0,0-.23.23v9.33a.23.23,0,0,0,.23.23h2.12a.23.23,0,0,0,.23-.23v-9.33a.23.23,0,0,0-.23-.23Z" fill="#093f68"></path><rect x="155.61" y="165.76" width="4.84" height="12.67" rx="2.42" fill="#ffc9b0"></rect><path d="M158,179.43a3.42,3.42,0,0,1-3.42-3.42v-7.83a3.42,3.42,0,1,1,6.84,0V176A3.42,3.42,0,0,1,158,179.43Zm0-12.67a1.43,1.43,0,0,0-1.42,1.42V176a1.42,1.42,0,0,0,2.84,0v-7.83A1.43,1.43,0,0,0,158,166.76Z" fill="#093f68"></path><rect x="160.45" y="165.76" width="4.84" height="12.67" rx="2.42" fill="#ffc9b0"></rect><path d="M162.87,179.43a3.42,3.42,0,0,1-3.42-3.42v-7.83a3.42,3.42,0,1,1,6.84,0V176A3.42,3.42,0,0,1,162.87,179.43Zm0-12.67a1.42,1.42,0,0,0-1.42,1.42V176a1.42,1.42,0,1,0,2.84,0v-7.83A1.43,1.43,0,0,0,162.87,166.76Z" fill="#093f68"></path><rect x="165.29" y="165.76" width="4.84" height="12.67" rx="2.42" fill="#ffc9b0"></rect><path d="M167.7,179.43a3.42,3.42,0,0,1-3.41-3.42v-7.83a3.42,3.42,0,1,1,6.83,0V176A3.42,3.42,0,0,1,167.7,179.43Zm0-12.67a1.42,1.42,0,0,0-1.41,1.42V176a1.42,1.42,0,1,0,2.83,0v-7.83A1.42,1.42,0,0,0,167.7,166.76Z" fill="#093f68"></path><rect x="170.12" y="165.76" width="4.84" height="12.67" rx="2.42" fill="#ffc9b0"></rect><path d="M172.54,179.43a3.42,3.42,0,0,1-3.42-3.42v-7.83a3.42,3.42,0,1,1,6.84,0V176A3.42,3.42,0,0,1,172.54,179.43Zm0-12.67a1.43,1.43,0,0,0-1.42,1.42V176a1.42,1.42,0,0,0,2.84,0v-7.83A1.43,1.43,0,0,0,172.54,166.76Z" fill="#093f68"></path><rect x="166.78" y="173.47" width="4.84" height="12.67" rx="2.42" transform="translate(349.01 10.61) rotate(90)" fill="#ffc9b0"></rect><path d="M173.11,183.23h-7.82a3.42,3.42,0,0,1,0-6.84h7.82a3.42,3.42,0,0,1,0,6.84Zm-7.82-4.84a1.42,1.42,0,1,0,0,2.84h7.82a1.42,1.42,0,0,0,0-2.84Z" fill="#093f68"></path></g></svg>